<?xml version="1.0" encoding="UTF-8" standalone="no"?>
<!-- Created with Inkscape (http://www.inkscape.org/) -->

<svg
   xmlns:dc="http://purl.org/dc/elements/1.1/"
   xmlns:cc="http://creativecommons.org/ns#"
   xmlns:rdf="http://www.w3.org/1999/02/22-rdf-syntax-ns#"
   xmlns:svg="http://www.w3.org/2000/svg"
   xmlns="http://www.w3.org/2000/svg"
   xmlns:sodipodi="http://sodipodi.sourceforge.net/DTD/sodipodi-0.dtd"
   xmlns:inkscape="http://www.inkscape.org/namespaces/inkscape"
   width="16"
   height="16"
   viewBox="0 0 4.2333333 4.2333335"
   version="1.1"
   id="svg8"
   sodipodi:docname="app.svg"
   inkscape:version="0.92.2 (5c3e80d, 2017-08-06)"
   inkscape:export-filename="C:\Private\Devel\burningicon\icons\app.png"
   inkscape:export-xdpi="384.00003"
   inkscape:export-ydpi="384.00003">
  <defs
     id="defs2" />
  <sodipodi:namedview
     id="base"
     pagecolor="#ffffff"
     bordercolor="#666666"
     borderopacity="1.0"
     inkscape:pageopacity="0.0"
     inkscape:pageshadow="2"
     inkscape:zoom="15.839192"
     inkscape:cx="3.5497222"
     inkscape:cy="0.96409304"
     inkscape:document-units="mm"
     inkscape:current-layer="layer1"
     showgrid="true"
     units="px"
     showguides="true"
     inkscape:window-width="1280"
     inkscape:window-height="972"
     inkscape:window-x="-8"
     inkscape:window-y="-8"
     inkscape:window-maximized="1"
     viewbox-width="4.23"
     inkscape:pagecheckerboard="false"
     borderlayer="false"
     gridtolerance="10">
    <inkscape:grid
       type="xygrid"
       id="grid815"
       dotted="false" />
  </sodipodi:namedview>
  <metadata
     id="metadata5">
    <rdf:RDF>
      <cc:Work
         rdf:about="">
        <dc:format>image/svg+xml</dc:format>
        <dc:type
           rdf:resource="http://purl.org/dc/dcmitype/StillImage" />
        <dc:title />
      </cc:Work>
    </rdf:RDF>
  </metadata>
  <g
     inkscape:label="Layer 1"
     inkscape:groupmode="layer"
     id="layer1"
     transform="translate(0,-292.76664)">
    <ellipse
       style="opacity:1;fill:#b90000;fill-opacity:1;stroke:none;stroke-width:0.33693835;stroke-miterlimit:4;stroke-dasharray:none;stroke-opacity:1"
       id="path824"
       cx="2.0881448"
       cy="294.88861"
       rx="1.6885854"
       ry="1.6848166" />
    <path
       style="opacity:1;fill:#7f7676;fill-opacity:1;stroke:none;stroke-width:0.33693835;stroke-miterlimit:4;stroke-dasharray:none;stroke-opacity:1"
       d="m 2.1383743,293.20383 a 1.6885854,1.6848166 0 0 0 -1.68878565,1.68516 1.6885854,1.6848166 0 0 0 0.47904025,1.17461 l 0.6614583,-0.77618 0.047543,-0.40411 0.2480468,0.40411 0.00568,0.26458 0.2361613,-0.43821 -0.2418457,-0.62012 -0.271818,-0.26458 0.622701,0.12299 0.79375,0.93534 v 0.79375 l 0.1012858,0.11317 0.2304769,-0.37775 0.077515,-0.6687 0.2883545,0.30231 a 1.6885854,1.6848166 0 0 0 0.098702,-0.56121 1.6885854,1.6848166 0 0 0 -1.688269,-1.68516 z"
       id="path824-6"
       inkscape:connector-curvature="0" />
    <path
       style="fill:none;fill-opacity:1;stroke:#ffffff;stroke-width:0.26458332px;stroke-linecap:butt;stroke-linejoin:miter;stroke-opacity:1"
       d="m 0.86343943,296.08102 0.67681357,-0.79375 0.047247,-0.40396 0.2480469,0.40396 0.00591,0.26458 0.2362351,-0.43821 -0.242141,-0.62012 -0.2716704,-0.26458 0.6224795,0.12284 0.79375,0.93549 v 0.79375 l 0.101581,0.1134 0.2303293,-0.37798 0.07737,-0.66855 0.3147763,0.33029"
       id="path1984"
       inkscape:connector-curvature="0"
       sodipodi:nodetypes="ccccccccccccccc" />
    <path
       style="fill:none;fill-opacity:1;stroke:#ffffff;stroke-width:0.2;stroke-linecap:butt;stroke-linejoin:miter;stroke-opacity:1;stroke-miterlimit:4;stroke-dasharray:none"
       d="m 1.9595703,296.58302 0.4216797,-0.64138 0.1724516,0.72288"
       id="path1986"
       inkscape:connector-curvature="0"
       sodipodi:nodetypes="ccc" />
    <ellipse
       style="opacity:1;fill:none;fill-opacity:1;stroke:#404040;stroke-width:0.33693835;stroke-miterlimit:4;stroke-dasharray:none;stroke-opacity:1"
       id="path824-1"
       cx="2.1542904"
       cy="294.95239"
       rx="1.6885854"
       ry="1.6848166" />
  </g>
</svg>
